<svg width="120" height="108" viewBox="0 0 120 108" fill="none" xmlns="http://www.w3.org/2000/svg">
<g opacity="0.1">
<path d="M60 0C80.5131 0 100.573 1.95944 120 5.70057L118.715 12.3617C99.7088 8.70171 80.08 6.78371 60 6.78371C39.92 6.78371 20.2912 8.70171 1.28519 12.3617L0 5.70057C19.4269 1.95944 39.4869 0 60 0Z" fill="#00FEA2"/>
<path d="M60.0062 6.78467C77.1399 6.78467 93.89 9.16086 110.102 13.6942L108.274 20.2262C92.6417 15.8551 76.5068 13.5684 60.0062 13.5684C43.5057 13.5684 27.3707 15.8551 11.7386 20.2262L9.91016 13.6942C26.1224 9.16086 42.8726 6.78467 60.0062 6.78467Z" fill="#00FEA2"/>
<path d="M60 13.5669C80.5131 13.5669 100.573 15.5263 120 19.2675L118.715 25.9286C99.7088 22.2686 80.08 20.3506 60 20.3506C39.92 20.3506 20.2912 22.2686 1.28519 25.9286L0 19.2675C19.4269 15.5263 39.4869 13.5669 60 13.5669Z" fill="#00FEA2"/>
<path d="M60.0062 20.3491C77.1399 20.3491 93.89 22.7253 110.102 27.2587L108.274 33.7907C92.6417 29.4196 76.5068 27.1328 60.0062 27.1328C43.5057 27.1328 27.3707 29.4196 11.7386 33.7907L9.91016 27.2587C26.1224 22.7253 42.8726 20.3491 60.0062 20.3491Z" fill="#00FEA2"/>
<path d="M59.9987 33.9209C67.8914 33.9209 75.6027 35.1405 83.056 37.4651L81.0355 43.9441C74.2137 41.8164 67.1835 40.7046 59.9987 40.7046C52.8139 40.7046 45.7838 41.8164 38.9619 43.9441L36.9414 37.4651C44.3947 35.1405 52.106 33.9209 59.9987 33.9209Z" fill="#00FEA2"/>
<path d="M59.9987 47.4854C67.8914 47.4854 75.6027 48.7049 83.056 51.0296L81.0355 57.5085C74.2137 55.3809 67.1835 54.2691 59.9987 54.2691C52.8139 54.2691 45.7838 55.3809 38.9619 57.5085L36.9414 51.0296C44.3947 48.7049 52.106 47.4854 59.9987 47.4854Z" fill="#00FEA2"/>
<path d="M59.9987 61.0498C67.8914 61.0498 75.6027 62.2694 83.056 64.594L81.0355 71.073C74.2137 68.9453 67.1835 67.8335 59.9987 67.8335C52.8139 67.8335 45.7838 68.9453 38.9619 71.073L36.9414 64.594C44.3947 62.2694 52.106 61.0498 59.9987 61.0498Z" fill="#00FEA2"/>
<path d="M59.9987 74.624C67.8914 74.624 75.6027 75.8436 83.056 78.1682L81.0355 84.6472C74.2137 82.5195 67.1835 81.4077 59.9987 81.4077C52.8139 81.4077 45.7838 82.5195 38.9619 84.6472L36.9414 78.1682C44.3947 75.8436 52.106 74.624 59.9987 74.624Z" fill="#00FEA2"/>
<path d="M59.9987 88.1885C67.8914 88.1885 75.6027 89.4081 83.056 91.7327L81.0355 98.2117C74.2137 96.084 67.1835 94.9722 59.9987 94.9722C52.8139 94.9722 45.7838 96.084 38.9619 98.2117L36.9414 91.7327C44.3947 89.4081 52.106 88.1885 59.9987 88.1885Z" fill="#00FEA2"/>
<path d="M60 27.1338C80.5131 27.1338 100.573 29.0932 120 32.8344L118.715 39.4955C99.7088 35.8355 80.08 33.9175 60 33.9175C39.92 33.9175 20.2912 35.8355 1.28519 39.4955L0 32.8344C19.4269 29.0932 39.4869 27.1338 60 27.1338Z" fill="#00FEA2"/>
<path d="M60 40.7056C80.5131 40.7056 100.573 42.665 120 46.4061L118.715 53.0673C99.7088 49.4073 80.08 47.4893 60 47.4893C39.92 47.4893 20.2912 49.4073 1.28519 53.0673L0 46.4061C19.4269 42.665 39.4869 40.7056 60 40.7056Z" fill="#00FEA2"/>
<path d="M60 54.2744C80.5131 54.2744 100.573 56.2339 120 59.975L118.715 66.6361C99.7088 62.9761 80.08 61.0581 60 61.0581C39.92 61.0581 20.2912 62.9761 1.28519 66.6361L0 59.975C19.4269 56.2339 39.4869 54.2744 60 54.2744Z" fill="#00FEA2"/>
<path d="M60 67.8418C80.5131 67.8418 100.573 69.8012 120 73.5424L118.715 80.2035C99.7088 76.5435 80.08 74.6255 60 74.6255C39.92 74.6255 20.2912 76.5435 1.28519 80.2035L0 73.5424C19.4269 69.8012 39.4869 67.8418 60 67.8418Z" fill="#00FEA2"/>
<path d="M60 81.4014C80.5131 81.4014 100.573 83.3608 120 87.1019L118.715 93.7631C99.7088 90.1031 80.08 88.1851 60 88.1851C39.92 88.1851 20.2912 90.1031 1.28519 93.7631L0 87.1019C19.4269 83.3608 39.4869 81.4014 60 81.4014Z" fill="#00FEA2"/>
<path d="M60 94.9707C80.5131 94.9707 100.573 96.9301 120 100.671L118.715 107.332C99.7088 103.672 80.08 101.754 60 101.754C39.92 101.754 20.2912 103.672 1.28519 107.332L0 100.671C19.4269 96.9301 39.4869 94.9707 60 94.9707Z" fill="#00FEA2"/>
</g>
</svg>
