<svg width="59" height="53" viewBox="0 0 59 53" fill="none" xmlns="http://www.w3.org/2000/svg">
<path d="M29.3166 0C39.3394 0 49.141 0.957402 58.6331 2.78535L58.0051 6.04005C48.7186 4.25173 39.1278 3.31458 29.3166 3.31458C19.5053 3.31458 9.91447 4.25173 0.627957 6.04005L0 2.78535C9.49216 0.957401 19.2937 0 29.3166 0Z" fill="#334155"/>
<path d="M29.3211 3.31641C37.6928 3.31641 45.8771 4.47743 53.7985 6.69249L52.9052 9.88407C45.2671 7.74831 37.3835 6.63099 29.3211 6.63099C21.2588 6.63099 13.3751 7.74831 5.73713 9.88407L4.84375 6.69249C12.7652 4.47743 20.9495 3.31641 29.3211 3.31641Z" fill="#334155"/>
<path d="M29.3166 6.62891C39.3394 6.62891 49.141 7.58631 58.6331 9.41425L58.0051 12.669C48.7186 10.8806 39.1278 9.94349 29.3166 9.94349C19.5053 9.94349 9.91447 10.8806 0.627957 12.669L0 9.41425C9.49216 7.58631 19.2937 6.62891 29.3166 6.62891Z" fill="#334155"/>
<path d="M29.3211 9.94336C37.6928 9.94336 45.8771 11.1044 53.7985 13.3194L52.9052 16.511C45.2672 14.3753 37.3835 13.2579 29.3211 13.2579C21.2588 13.2579 13.3751 14.3753 5.73713 16.511L4.84375 13.3194C12.7652 11.1044 20.9495 9.94336 29.3211 9.94336Z" fill="#334155"/>
<path d="M29.3207 16.5762C33.1772 16.5762 36.9449 17.1721 40.5867 18.3079L39.5995 21.4736C36.2663 20.434 32.8313 19.8908 29.3207 19.8908C25.8101 19.8908 22.3752 20.434 19.0419 21.4736L18.0547 18.3079C21.6965 17.1721 25.4642 16.5762 29.3207 16.5762Z" fill="#334155"/>
<path d="M29.3207 23.2031C33.1772 23.2031 36.9449 23.799 40.5867 24.9349L39.5995 28.1005C36.2663 27.0609 32.8313 26.5177 29.3207 26.5177C25.8101 26.5177 22.3752 27.0609 19.0419 28.1005L18.0547 24.9349C21.6965 23.799 25.4642 23.2031 29.3207 23.2031Z" fill="#334155"/>
<path d="M29.3207 29.832C33.1772 29.832 36.9449 30.4279 40.5867 31.5638L39.5995 34.7295C36.2663 33.6899 32.8313 33.1466 29.3207 33.1466C25.8101 33.1466 22.3752 33.6899 19.0419 34.7295L18.0547 31.5638C21.6965 30.4279 25.4642 29.832 29.3207 29.832Z" fill="#334155"/>
<path d="M29.3207 36.4629C33.1772 36.4629 36.9449 37.0588 40.5867 38.1946L39.5995 41.3603C36.2663 40.3207 32.8313 39.7775 29.3207 39.7775C25.8101 39.7775 22.3752 40.3207 19.0419 41.3603L18.0547 38.1946C21.6965 37.0588 25.4642 36.4629 29.3207 36.4629Z" fill="#334155"/>
<path d="M29.3207 43.0898C33.1772 43.0898 36.9449 43.6857 40.5867 44.8216L39.5995 47.9873C36.2663 46.9477 32.8313 46.4044 29.3207 46.4044C25.8101 46.4044 22.3752 46.9477 19.0419 47.9873L18.0547 44.8216C21.6965 43.6857 25.4642 43.0898 29.3207 43.0898Z" fill="#334155"/>
<path d="M29.3166 13.2598C39.3394 13.2598 49.141 14.2172 58.6331 16.0451L58.0051 19.2998C48.7186 17.5115 39.1278 16.5743 29.3166 16.5743C19.5053 16.5743 9.91447 17.5115 0.627957 19.2998L0 16.0451C9.49216 14.2172 19.2937 13.2598 29.3166 13.2598Z" fill="#334155"/>
<path d="M29.3166 19.8887C39.3394 19.8887 49.141 20.8461 58.6331 22.674L58.0051 25.9287C48.7186 24.1404 39.1278 23.2033 29.3166 23.2033C19.5053 23.2033 9.91447 24.1404 0.627957 25.9287L0 22.674C9.49216 20.8461 19.2937 19.8887 29.3166 19.8887Z" fill="#334155"/>
<path d="M29.3166 26.5195C39.3394 26.5195 49.141 27.4769 58.6331 29.3049L58.0051 32.5596C48.7186 30.7713 39.1278 29.8341 29.3166 29.8341C19.5053 29.8341 9.91447 30.7713 0.627957 32.5596L0 29.3049C9.49216 27.4769 19.2937 26.5195 29.3166 26.5195Z" fill="#334155"/>
<path d="M29.3166 33.1465C39.3394 33.1465 49.141 34.1039 58.6331 35.9318L58.0051 39.1865C48.7186 37.3982 39.1278 36.4611 29.3166 36.4611C19.5053 36.4611 9.91447 37.3982 0.627957 39.1865L0 35.9318C9.49216 34.1039 19.2937 33.1465 29.3166 33.1465Z" fill="#334155"/>
<path d="M29.3166 39.7754C39.3394 39.7754 49.141 40.7328 58.6331 42.5607L58.0051 45.8154C48.7186 44.0271 39.1278 43.09 29.3166 43.09C19.5053 43.09 9.91447 44.0271 0.627957 45.8154L0 42.5607C9.49216 40.7328 19.2937 39.7754 29.3166 39.7754Z" fill="#334155"/>
<path d="M29.3166 46.4043C39.3394 46.4043 49.141 47.3617 58.6331 49.1896L58.0051 52.4443C48.7186 50.656 39.1278 49.7189 29.3166 49.7189C19.5053 49.7189 9.91447 50.656 0.627957 52.4443L0 49.1896C9.49216 47.3617 19.2937 46.4043 29.3166 46.4043Z" fill="#334155"/>
</svg>
