<svg width="116" height="21" viewBox="0 0 116 21" fill="none" xmlns="http://www.w3.org/2000/svg">
<path d="M11.5 0C15.4317 0 19.2765 0.37556 23 1.09261L22.7537 2.36933C19.1109 1.66783 15.3487 1.30021 11.5 1.30021C7.65134 1.30021 3.88915 1.66783 0.246329 2.36933L0 1.09261C3.72349 0.37556 7.56833 0 11.5 0Z" fill="#00FEA2"/>
<path d="M11.5 2.59961C15.4317 2.59961 19.2765 2.97517 23 3.69222L22.7537 4.96894C19.1109 4.26744 15.3487 3.89982 11.5 3.89982C7.65134 3.89982 3.88915 4.26744 0.246329 4.96894L0 3.69222C3.72349 2.97517 7.56833 2.59961 11.5 2.59961Z" fill="#00FEA2"/>
<path d="M11.5002 1.30078C14.7841 1.30078 17.9946 1.75622 21.1019 2.62512L20.7515 3.87708C17.7553 3.03928 14.6628 2.60099 11.5002 2.60099C8.33758 2.60099 5.24505 3.03928 2.24888 3.87708L1.89844 2.62512C5.00578 1.75622 8.21623 1.30078 11.5002 1.30078Z" fill="#00FEA2"/>
<path d="M11.5002 3.90039C14.7841 3.90039 17.9946 4.35583 21.1019 5.22473L20.7515 6.47669C17.7553 5.63889 14.6628 5.2006 11.5002 5.2006C8.33757 5.2006 5.24505 5.63889 2.24888 6.47669L1.89844 5.22473C5.00578 4.35583 8.21623 3.90039 11.5002 3.90039Z" fill="#00FEA2"/>
<path d="M11.4994 6.50195C13.0122 6.50195 14.4902 6.73571 15.9187 7.18126L15.5314 8.42306C14.2239 8.01526 12.8765 7.80216 11.4994 7.80216C10.1223 7.80216 8.77487 8.01526 7.46735 8.42306L7.08008 7.18126C8.50863 6.73571 9.98662 6.50195 11.4994 6.50195Z" fill="#00FEA2"/>
<path d="M11.4994 9.10156C13.0122 9.10156 14.4902 9.33532 15.9187 9.78087L15.5314 11.0227C14.2239 10.6149 12.8765 10.4018 11.4994 10.4018C10.1223 10.4018 8.77487 10.6149 7.46735 11.0227L7.08008 9.78087C8.50863 9.33532 9.98662 9.10156 11.4994 9.10156Z" fill="#00FEA2"/>
<path d="M11.4994 11.7012C13.0122 11.7012 14.4902 11.9349 15.9187 12.3805L15.5314 13.6223C14.2239 13.2145 12.8765 13.0014 11.4994 13.0014C10.1223 13.0014 8.77487 13.2145 7.46735 13.6223L7.08008 12.3805C8.50863 11.9349 9.98662 11.7012 11.4994 11.7012Z" fill="#00FEA2"/>
<path d="M11.4994 14.3027C13.0122 14.3027 14.4902 14.5365 15.9187 14.982L15.5314 16.2238C14.2239 15.816 12.8765 15.6029 11.4994 15.6029C10.1223 15.6029 8.77487 15.816 7.46735 16.2238L7.08008 14.982C8.50863 14.5365 9.98662 14.3027 11.4994 14.3027Z" fill="#00FEA2"/>
<path d="M11.4994 16.9023C13.0122 16.9023 14.4902 17.1361 15.9187 17.5817L15.5314 18.8235C14.2239 18.4156 12.8765 18.2026 11.4994 18.2026C10.1223 18.2026 8.77487 18.4156 7.46735 18.8235L7.08008 17.5817C8.50863 17.1361 9.98662 16.9023 11.4994 16.9023Z" fill="#00FEA2"/>
<path d="M11.5 5.20117C15.4317 5.20117 19.2765 5.57673 23 6.29378L22.7537 7.5705C19.1109 6.869 15.3487 6.50138 11.5 6.50138C7.65134 6.50138 3.88915 6.869 0.246329 7.5705L0 6.29378C3.72349 5.57673 7.56833 5.20117 11.5 5.20117Z" fill="#00FEA2"/>
<path d="M11.5 7.80078C15.4317 7.80078 19.2765 8.17634 23 8.89339L22.7537 10.1701C19.1109 9.46861 15.3487 9.10099 11.5 9.10099C7.65134 9.10099 3.88915 9.46861 0.246329 10.1701L0 8.89339C3.72349 8.17634 7.56833 7.80078 11.5 7.80078Z" fill="#00FEA2"/>
<path d="M11.5 10.4023C15.4317 10.4023 19.2765 10.7779 23 11.495L22.7537 12.7717C19.1109 12.0702 15.3487 11.7026 11.5 11.7026C7.65134 11.7026 3.88915 12.0702 0.246329 12.7717L0 11.495C3.72349 10.7779 7.56833 10.4023 11.5 10.4023Z" fill="#00FEA2"/>
<path d="M11.5 13.002C15.4317 13.002 19.2765 13.3775 23 14.0946L22.7537 15.3713C19.1109 14.6698 15.3487 14.3022 11.5 14.3022C7.65134 14.3022 3.88915 14.6698 0.246329 15.3713L0 14.0946C3.72349 13.3775 7.56833 13.002 11.5 13.002Z" fill="#00FEA2"/>
<path d="M11.5 15.6016C15.4317 15.6016 19.2765 15.9771 23 16.6942L22.7537 17.9709C19.1109 17.2694 15.3487 16.9018 11.5 16.9018C7.65134 16.9018 3.88915 17.2694 0.246329 17.9709L0 16.6942C3.72349 15.9771 7.56833 15.6016 11.5 15.6016Z" fill="#00FEA2"/>
<path d="M11.5 18.2031C15.4317 18.2031 19.2765 18.5787 23 19.2957L22.7537 20.5725C19.1109 19.871 15.3487 19.5033 11.5 19.5033C7.65134 19.5033 3.88915 19.871 0.246329 20.5725L0 19.2957C3.72349 18.5787 7.56833 18.2031 11.5 18.2031Z" fill="#00FEA2"/>
<path d="M115.749 12.7289V17.5324H112.933V13.3707L111.691 11.9835H107.177V17.5324H104.361V3.03906H113.451L115.666 5.27517V9.66458L114.258 11.0932L115.749 12.7289ZM107.177 9.66458H112.167L112.892 8.93991V6.12407L112.167 5.3994H107.177V9.66458Z" fill="#F8FAFC"/>
<path d="M91.8047 3.03906H102.281V5.42011H94.6205V9.08484H101.681V11.4245H94.6205V15.1513H102.281V17.5324H91.8047V3.03906Z" fill="#F8FAFC"/>
<path d="M83.007 5.42011H78.6797V3.03906H90.1501V5.42011H85.8228V17.5324H83.007V5.42011Z" fill="#F8FAFC"/>
<path d="M72.2477 3.03906H74.8151L80.1155 17.5324H77.2582L76.0781 14.3231H70.9847L69.8045 17.5324H66.9473L72.2477 3.03906ZM75.4569 12.0042L73.5314 6.49675H73.49L71.6265 12.0042H75.4569Z" fill="#F8FAFC"/>
<path d="M50.0938 3.03906H52.9303L54.6902 13.2672H54.773L57.651 3.03906H59.7629L62.5787 13.2672H62.6615L64.4214 3.03906H67.258L64.2558 17.5324H61.6263L58.7483 7.34565H58.6655L55.7254 17.5324H53.0959L50.0938 3.03906Z" fill="#F8FAFC"/>
<path d="M45.3027 3.03906H48.1186V17.5324H45.3027V3.03906Z" fill="#F8FAFC"/>
<path d="M31 15.1513V5.42011L33.381 3.03906H40.5863L42.9259 5.3787V7.5941H40.1101V6.41393L39.137 5.44081H34.8718L33.8158 6.49675V14.0747L34.8718 15.1306H39.1784L40.1929 14.1161V11.8593H37.0872V9.45753H42.9259V15.1513L40.5449 17.5324H33.381L31 15.1513Z" fill="#F8FAFC"/>
</svg>
