<svg width="169" height="152" viewBox="0 0 169 152" fill="none" xmlns="http://www.w3.org/2000/svg">
<path d="M84.4937 0C113.381 0 141.63 2.75934 168.987 8.0277L167.177 17.4081C140.413 12.254 112.771 9.55301 84.4937 9.55301C56.2165 9.55301 28.5746 12.254 1.80985 17.4081L0 8.0277C27.3575 2.75934 55.6066 0 84.4937 0Z" fill="#57FBBF"/>
<path d="M84.4998 9.5542C108.628 9.5542 132.216 12.9004 155.046 19.2845L152.472 28.483C130.458 22.3275 107.736 19.1072 84.4998 19.1072C61.2632 19.1072 38.5416 22.3275 16.528 28.483L13.9531 19.2845C36.7836 12.9004 60.3717 9.5542 84.4998 9.5542Z" fill="#57FBBF"/>
<path d="M84.4937 19.1051C113.381 19.1051 141.63 21.8644 168.987 27.1328L167.177 36.5132C140.413 31.3591 112.771 28.6581 84.4937 28.6581C56.2165 28.6581 28.5746 31.3591 1.80985 36.5132L0 27.1328C27.3575 21.8644 55.6066 19.1051 84.4937 19.1051Z" fill="#57FBBF"/>
<path d="M84.4998 28.6562C108.628 28.6562 132.216 32.0025 155.046 38.3865L152.472 47.585C130.458 41.4295 107.736 38.2093 84.4998 38.2093C61.2632 38.2093 38.5416 41.4295 16.528 47.585L13.9531 38.3865C36.7836 32.0025 60.3717 28.6562 84.4998 28.6562Z" fill="#57FBBF"/>
<path d="M84.4934 47.7681C95.6081 47.7681 106.467 49.4855 116.963 52.7591L114.118 61.883C104.511 58.8868 94.6112 57.3211 84.4934 57.3211C74.3756 57.3211 64.4755 58.8868 54.8688 61.883L52.0234 52.7591C62.5194 49.4855 73.3786 47.7681 84.4934 47.7681Z" fill="#57FBBF"/>
<path d="M84.4934 66.8701C95.6081 66.8701 106.467 68.5876 116.963 71.8612L114.118 80.9851C104.511 77.9888 94.6112 76.4231 84.4934 76.4231C74.3756 76.4231 64.4755 77.9888 54.8688 80.9851L52.0234 71.8612C62.5194 68.5876 73.3786 66.8701 84.4934 66.8701Z" fill="#57FBBF"/>
<path d="M84.4934 85.9717C95.6081 85.9717 106.467 87.6891 116.963 90.9628L114.118 100.087C104.511 97.0904 94.6112 95.5247 84.4934 95.5247C74.3756 95.5247 64.4755 97.0904 54.8688 100.087L52.0234 90.9628C62.5194 87.6891 73.3786 85.9717 84.4934 85.9717Z" fill="#57FBBF"/>
<path d="M84.4934 105.087C95.6081 105.087 106.467 106.805 116.963 110.078L114.118 119.202C104.511 116.206 94.6112 114.64 84.4934 114.64C74.3756 114.64 64.4755 116.206 54.8688 119.202L52.0234 110.078C62.5194 106.805 73.3786 105.087 84.4934 105.087Z" fill="#57FBBF"/>
<path d="M84.4934 124.189C95.6081 124.189 106.467 125.907 116.963 129.181L114.118 138.304C104.511 135.308 94.6112 133.742 84.4934 133.742C74.3756 133.742 64.4755 135.308 54.8688 138.304L52.0234 129.181C62.5194 125.907 73.3786 124.189 84.4934 124.189Z" fill="#57FBBF"/>
<path d="M84.4937 38.2103C113.381 38.2103 141.63 40.9697 168.987 46.238L167.177 55.6184C140.413 50.4643 112.771 47.7633 84.4937 47.7633C56.2165 47.7633 28.5746 50.4643 1.80985 55.6184L0 46.238C27.3575 40.9697 55.6066 38.2103 84.4937 38.2103Z" fill="#57FBBF"/>
<path d="M84.4937 57.3225C113.381 57.3225 141.63 60.0819 168.987 65.3502L167.177 74.7306C140.413 69.5765 112.771 66.8755 84.4937 66.8755C56.2165 66.8755 28.5746 69.5765 1.80985 74.7306L0 65.3502C27.3575 60.0819 55.6066 57.3225 84.4937 57.3225Z" fill="#57FBBF"/>
<path d="M84.4937 76.4308C113.381 76.4308 141.63 79.1901 168.987 84.4585L167.177 93.8389C140.413 88.6848 112.771 85.9838 84.4937 85.9838C56.2165 85.9838 28.5746 88.6848 1.80985 93.8389L0 84.4585C27.3575 79.1901 55.6066 76.4308 84.4937 76.4308Z" fill="#57FBBF"/>
<path d="M84.4937 95.5365C113.381 95.5365 141.63 98.2958 168.987 103.564L167.177 112.945C140.413 107.79 112.771 105.09 84.4937 105.09C56.2165 105.09 28.5746 107.79 1.80985 112.945L0 103.564C27.3575 98.2958 55.6066 95.5365 84.4937 95.5365Z" fill="#57FBBF"/>
<path d="M84.4937 114.631C113.381 114.631 141.63 117.391 168.987 122.659L167.177 132.04C140.413 126.885 112.771 124.184 84.4937 124.184C56.2165 124.184 28.5746 126.885 1.80985 132.04L0 122.659C27.3575 117.391 55.6066 114.631 84.4937 114.631Z" fill="#57FBBF"/>
<path d="M84.4937 133.74C113.381 133.74 141.63 136.5 168.987 141.768L167.177 151.148C140.413 145.994 112.771 143.293 84.4937 143.293C56.2165 143.293 28.5746 145.994 1.80985 151.148L0 141.768C27.3575 136.5 55.6066 133.74 84.4937 133.74Z" fill="#57FBBF"/>
</svg>
