<svg width="123" height="260" viewBox="0 0 123 260" fill="none" xmlns="http://www.w3.org/2000/svg">
<!-- Row 1 -->
<path d="M104.646 69.7363C112.171 69.7363 118.27 70.3564 122.987 71.0723C121.094 103.391 94.2865 129.016 61.4932 129.016C28.6998 129.016 1.89301 103.391 0 71.0723C4.71736 70.3564 10.8163 69.7363 18.3398 69.7363C36.9185 69.7363 44.5553 84.1338 47.083 94.1445H75.9033C78.431 84.1338 86.0678 69.7363 104.646 69.7363ZM61.4941 0C94.2875 0 121.094 25.6247 122.987 57.9434C118.27 58.6592 112.171 59.2793 104.647 59.2793C86.0688 59.2793 78.432 44.8818 75.9043 34.8711H47.084C44.5563 44.8818 36.9195 59.2793 18.3408 59.2793C10.8168 59.2793 4.7175 58.6593 0 57.9434C1.89297 25.6247 28.7008 1.98747e-05 61.4941 0Z" fill="url(#paint0_linear_350_817)"/>
<!-- Row 2 -->
<path d="M104.646 199.7363C112.171 199.7363 118.27 200.3564 122.987 201.0723C121.094 233.391 94.2865 259.016 61.4932 259.016C28.6998 259.016 1.89301 233.391 0 201.0723C4.71736 200.3564 10.8163 199.7363 18.3398 199.7363C36.9185 199.7363 44.5553 214.1338 47.083 224.1445H75.9033C78.431 214.1338 86.0678 199.7363 104.646 199.7363ZM61.4941 130C94.2875 130 121.094 155.6247 122.987 187.9434C118.27 188.6592 112.171 189.2793 104.647 189.2793C86.0688 189.2793 78.432 174.8818 75.9043 164.8711H47.084C44.5563 174.8818 36.9195 189.2793 18.3408 189.2793C10.8168 189.2793 4.7175 188.6593 0 187.9434C1.89297 155.6247 28.7008 130.00002 61.4941 130Z" fill="url(#paint0_linear_350_817)"/>
<defs>
<linearGradient id="paint0_linear_350_817" x1="35.3317" y1="-24" x2="35.3318" y2="366.25" gradientUnits="userSpaceOnUse">
<stop stop-color="#BCE0FF"/>
<stop offset="1" stop-color="white" stop-opacity="0"/>
</linearGradient>
</defs>
</svg>
