<svg preserveAspectRatio="none" width="100%" height="100%" overflow="visible" style="display: block;" viewBox="0 0 19 20" fill="none" xmlns="http://www.w3.org/2000/svg">
<path id="Icon" d="M8 6.5C8.45473 4.49601 10.2469 3 12.3885 3C14.8738 3 16.8885 5.01472 16.8885 7.5C16.8885 9.80209 15.1598 11.7004 12.9298 11.9678M5 5L7 3L5 1M1 7V5.66667C1 4.19391 2.19391 3 3.66667 3H5.66667M14 15L12 17L14 19M18 13V14.3333C18 15.8061 16.8061 17 15.3333 17H13.3333M10 13.5C10 15.9853 7.98528 18 5.5 18C3.01472 18 1 15.9853 1 13.5C1 11.0147 3.01472 9 5.5 9C7.98528 9 10 11.0147 10 13.5Z" stroke="var(--stroke-0, black)" stroke-width="2" stroke-linecap="round" stroke-linejoin="round"/>
</svg>
