<svg width="202" height="185" viewBox="0 0 202 185" fill="none" xmlns="http://www.w3.org/2000/svg">
<g clip-path="url(#clip0_9501_50765)">
<path d="M29.6398 5.49748C32.0788 2.44725 36.4994 1.93931 39.7468 4.10885C55.9551 14.9371 76.5433 21.9729 100.648 21.9729C125.095 21.9729 146.754 14.9742 162.923 4.1901C166.203 2.00229 170.677 2.49728 173.132 5.58292L201.061 40.6918C201.882 41.7245 201.711 43.2291 200.662 44.0299C173.973 64.4088 138.64 76.2992 100.648 76.2993C62.2532 76.2993 28.0404 63.5762 1.92849 44.0299C0.862092 43.2317 0.682418 41.7108 1.51433 40.6704L29.6398 5.49748Z" fill="black"/>
<path d="M29.6398 178.872C32.0788 181.922 36.4994 182.43 39.7468 180.26C55.9551 169.432 76.5433 162.396 100.648 162.396C125.095 162.396 146.754 169.395 162.923 180.179C166.203 182.367 170.677 181.872 173.132 178.786L201.061 143.677C201.882 142.645 201.711 141.14 200.662 140.339C173.973 119.96 138.64 108.07 100.648 108.07C62.2532 108.07 28.0404 120.793 1.92849 140.339C0.862092 141.137 0.682418 142.658 1.51433 143.699L29.6398 178.872Z" fill="black"/>
</g>
<defs>
<clipPath id="clip0_9501_50765">
<rect width="202" height="185" fill="white"/>
</clipPath>
</defs>
</svg>
