<svg width="156" height="196" viewBox="0 0 156 196" fill="none" xmlns="http://www.w3.org/2000/svg">
<path d="M65.3821 101.92C50.0621 101.92 37.582 114.4 37.582 129.72C37.582 145.04 50.0621 157.51 65.3821 157.51C80.7021 157.51 93.1821 145.03 93.1821 129.72C93.1821 114.41 80.7021 101.92 65.3821 101.92ZM137.742 37.72C134.022 37.72 130.562 38.84 127.682 40.77L113.842 26.95C115.361 24.2516 116.157 21.2065 116.152 18.11C116.152 8.11 108.042 0 98.0421 0C88.0421 0 79.9321 8.11 79.9321 18.11C79.9321 28.11 88.0421 36.22 98.0421 36.22C102.262 36.22 106.142 34.77 109.212 32.36L122.662 45.79C120.742 48.66 119.622 52.11 119.622 55.83C119.622 59.55 120.742 62.99 122.662 65.87L108.192 80.32C109.982 81.87 111.682 83.51 113.292 85.25L127.672 70.9C130.552 72.83 134.012 73.95 137.732 73.95C147.732 73.95 155.842 65.84 155.842 55.84C155.842 45.84 147.732 37.73 137.732 37.73L137.742 37.72Z" fill="#FF4E00"/>
<path d="M113.3 85.2403C111.687 83.5094 109.985 81.8638 108.2 80.3103C96.73 70.3603 81.77 64.3203 65.39 64.3203C29.27 64.3203 0 93.6003 0 129.71C0 165.82 29.28 195.1 65.39 195.1C101.5 195.1 130.78 165.82 130.78 129.71C130.78 112.53 124.14 96.9003 113.3 85.2303V85.2403ZM65.38 170.8C42.69 170.8 24.3 152.41 24.3 129.72C24.3 107.03 42.69 88.6403 65.38 88.6403C88.07 88.6403 106.46 107.03 106.46 129.72C106.46 152.41 88.07 170.8 65.38 170.8Z" fill="black"/>
</svg>
